<?xml version="1.0" encoding="iso-8859-1"?>
<!-- Uploaded to: SVG Repo, www.svgrepo.com, Generator: SVG Repo Mixer Tools -->
<svg height="800px" width="800px" version="1.1" id="Layer_1" xmlns="http://www.w3.org/2000/svg" xmlns:xlink="http://www.w3.org/1999/xlink" 
	 viewBox="0 0 512 512" xml:space="preserve">
<path style="fill:#58595B;" d="M345.622,371.967v-85.602c0-30.978,1.021-43.026-21.009-65.056
	c-24.17-24.17-15.352-58.509-15.352-58.509h-0.925H205.618h-0.926c0,0,8.457,34.338-15.714,58.509
	c-23.413,23.413-22.603,34.078-22.603,65.056v200.072c0,14.118,11.445,25.563,25.563,25.563h128.126
	c14.119,0,25.564-11.446,25.563-25.564L345.622,371.967z"/>
<path style="fill:#414042;" d="M345.622,286.365c0-30.978,1.021-43.026-21.009-65.056c-24.17-24.172-15.352-58.509-15.352-58.509
	h-0.925h-26.568c0,0-2.839,29.568,15.352,58.509c11.37,18.089,7.457,34.078,7.457,65.056v85.602l0.006,114.468
	C304.583,500.554,293.137,512,279.019,512h41.046c14.119,0,25.564-11.446,25.563-25.564l-0.006-114.468v-85.602H345.622z"/>
<g>
	<path style="fill:#AE7E0F;" d="M310.32,163.393H202.198c-8.778,0-15.725-7.426-15.14-16.184l1.944-29.123
		c0-6.963,7.031-12.609,15.703-12.609h102.872c8.672,0,15.703,5.645,15.703,12.609l2.172,29
		C326.11,155.889,319.146,163.393,310.32,163.393z"/>
	<path style="fill:#AE7E0F;" d="M292.144,105.715h-71.639l1.633-7.127c2.517-10.989,3.788-22.226,3.788-33.499v0.043
		C225.927,48.772,239.19,0,255.55,0l0,0c16.36,0,29.623,45.811,29.623,62.172l0,0c0,13.186,1.892,26.304,5.618,38.953
		L292.144,105.715z"/>
</g>
<path style="fill:#9B6700;" d="M325.451,147.086l-2.172-29c0-6.964-7.031-12.609-15.703-12.609h-15.502l-1.726-5.86
	c-3.589-12.183-5.138-24.834-5.174-37.533C285.127,45.649,271.883,0,255.55,0l0,0c8.792,27.957,9.565,49.39,9.565,62.172
	c0,13.186,1.891,26.303,5.618,38.953l1.283,4.353h-3.551h-63.761c-8.247,0-14.995,5.108-15.639,11.597
	c2.901-3.479,7.944-5.789,13.693-5.789h44.369c20.353,0,37.356,15.521,39.213,35.79c0.001,0.007,0.001,0.01,0.001,0.01
	c0.66,8.802-6.305,16.307-15.131,16.307h39.111C319.146,163.393,326.111,155.889,325.451,147.086z"/>
<path style="fill:#AE7E0F;" d="M291.916,372.208c0,18.972-15.38,34.352-34.352,34.352s-34.352-15.38-34.352-34.352
	c0-14.901,21.192-41.21,30.286-51.813c2.139-2.494,5.992-2.494,8.131,0C270.724,330.998,291.916,357.307,291.916,372.208z"/>
</svg>