<?xml version="1.0" encoding="iso-8859-1"?>
<!-- Uploaded to: SVG Repo, www.svgrepo.com, Generator: SVG Repo Mixer Tools -->
<svg height="800px" width="800px" version="1.1" id="Layer_1" xmlns="http://www.w3.org/2000/svg" xmlns:xlink="http://www.w3.org/1999/xlink" 
	 viewBox="0 0 512 512" xml:space="preserve">
<path style="fill:#4A4E34;" d="M282.147,286.761l39.672,207.281c1.851,9.291-5.238,17.957-14.689,17.957h-45.19
	c-7.128,0-13.267-5.034-14.681-12.038l-40.007-198.185L282.147,286.761z"/>
<path style="fill:#67703A;" d="M246.044,354.642l27.775,139.401c1.851,9.291-5.238,17.957-14.689,17.957h-45.19
	c-7.128,0-13.267-5.034-14.681-12.038l-40.007-198.185L246.044,354.642z"/>
<path style="fill:#899D4D;" d="M402.463,311.261c2.844,7.9,4.243,16.493,3.877,25.458c-1.407,34.379-29.172,62.346-63.459,63.905
	c-24.451,1.113-46.155-11.002-58.618-29.802c-11.934,18.001-32.339,29.873-55.516,29.873c-19.903,0-37.757-8.761-49.965-22.634
	c-12.661,14.388-31.396,23.278-52.193,22.597c-35.029-1.145-63.48-29.901-64.37-65.023c-0.213-8.402-1.202-27.287,12.841-41.523
	c-15.219-12.239-24.973-31.027-24.973-52.108c0-0.697,0-3.23,0-3.813c0-17.514,6.734-33.446,17.737-45.357
	c-11.004-11.911-17.737-27.843-17.737-45.357c0-13.953,4.274-26.902,11.575-37.616c11.683-19.151,32.002-31.949,56.053-31.949
	c4.049,0,8.006,0.383,11.856,1.076c4.837-32.114,32.483-56.728,65.865-56.728c31.712,0,58.229,22.219,64.954,51.968
	c12.13-11.656,28.634-18.768,46.808-18.573c35.203,0.378,64.381,28.692,65.831,63.954c0.61,14.825-3.608,28.631-11.201,39.977
	c10.819,3.804,20.355,10.333,27.807,18.756c1.868-0.158,3.751-0.256,5.659-0.256c36.793,0,66.619,29.9,66.619,66.783
	C461.913,279.323,435.883,307.676,402.463,311.261z"/>
<path style="fill:#4A4E34;" d="M344.321,189.217c0,36.883-29.826,66.783-66.619,66.783s-66.619-29.9-66.619-66.783
	s29.826-66.783,66.619-66.783S344.321,152.334,344.321,189.217z"/>
<path style="fill:#67703A;" d="M365.504,285.38c0,35.933-29.058,65.063-64.904,65.063c-16.627,0-31.786-6.274-43.27-16.58
	c-11.483,10.306-26.643,16.58-43.27,16.58c-35.846,0-64.904-29.131-64.904-65.063c0-9.767,2.16-19.023,6.007-27.336
	c-22.659-10.151-38.459-32.926-38.459-59.414c0-35.934,29.058-65.063,64.904-65.063s64.904,29.131,64.904,65.063
	c0,9.767-2.16,19.023-6.007,27.336c6.178,2.767,11.848,6.466,16.825,10.932c11.483-10.306,26.643-16.58,43.27-16.58
	C336.446,220.315,365.504,249.446,365.504,285.38z"/>
<path style="fill:#8B2A21;" d="M369.803,118.998L369.803,118.998c34.648,0,67.033,29.001,63.003,63.908l-29.088,251.778
	c-11.359,98.305-56.181,100.836-67.502,2.857L306.8,182.906C302.768,147.995,335.151,118.998,369.803,118.998L369.803,118.998z"/>
<path style="fill:#FF4328;" d="M432.806,182.906l-7.896,68.342l1.799-15.566h-56.905c-6.132,0-11.104,4.984-11.104,11.13
	c0,6.147,4.971,11.13,11.104,11.13h54.334l-12.196,105.559h-27.7c-6.132,0-11.104,4.983-11.104,11.13
	c0,6.146,4.971,11.13,11.104,11.13h25.129l-5.652,48.922c-11.359,98.305-56.181,100.837-67.502,2.857l-14.905-129.018h42.543
	c6.132,0,11.104-4.984,11.104-11.13c0-6.147-4.971-11.13-11.104-11.13H318.74l-9.115-78.898l0,0h21.093h35.011
	c6.132,0,11.103-4.983,11.103-11.13c0-6.146-4.971-11.13-11.103-11.13h-35.011h-23.663l0,0l-0.254-2.198
	c-4.033-34.911,28.349-63.908,63.003-63.908C404.452,118.998,436.836,148,432.806,182.906z"/>
<path style="fill:#C13421;" d="M432.806,182.906l-7.515,65.052l1.418-12.276h-39.861l6.097-52.776
	c2.225-19.266-6.646-36.723-20.866-48.504v-15.343C405.853,120.292,436.748,148.766,432.806,182.906z M384.241,385.763
	c-6.132,0-11.104-4.984-11.104-11.13c0-6.147,4.971-11.13,11.104-11.13h27.7l12.196-105.559h-39.861l-20.419,176.741
	c-2.925,25.311-8.071,44.255-14.288,56.787c17.906,37.059,45.57,17.461,54.148-56.787l5.652-48.922H384.241z"/>
<path style="fill:#A9BE65;" d="M409.637,13.994l-31.587,119c-1.294,4.875-5.697,8.269-10.73,8.269c-5.032,0-9.435-3.394-10.73-8.269
	l-22.997-86.629c-1.577-5.94,1.949-12.038,7.875-13.618c5.92-1.582,12.008,1.953,13.585,7.895l12.266,46.207l20.858-78.578
	c1.577-5.94,7.661-9.474,13.585-7.894C407.689,1.958,411.214,8.054,409.637,13.994z"/>
</svg>