<?xml version="1.0" encoding="iso-8859-1"?>

<!DOCTYPE svg PUBLIC "-//W3C//DTD SVG 1.1//EN" "http://www.w3.org/Graphics/SVG/1.1/DTD/svg11.dtd">
<!-- Uploaded to: SVG Repo, www.svgrepo.com, Generator: SVG Repo Mixer Tools -->
<svg version="1.1" id="_x36_" xmlns="http://www.w3.org/2000/svg" xmlns:xlink="http://www.w3.org/1999/xlink" 
	 viewBox="0 0 512 512"  xml:space="preserve">
<g>
	<path style="fill:none;" d="M239.059,88.606h-0.102v12.854h91.894c-13.453-37.827-49.51-65.029-91.894-65.029v52.111
		L239.059,88.606z"/>
	<path style="fill:none;" d="M147.063,101.46h91.894V88.606h-0.102v-0.128l0.102,0.064V36.431h0
		C196.573,36.431,160.515,63.633,147.063,101.46z"/>
	<g>
		<g>
			<g>
				<path style="fill:#F1E6C2;" d="M372.971,134.01v24.685c0,10.113-8.122,18.235-18.234,18.235
					c-10.033,0-18.155-8.122-18.155-18.235V134.01c0-11.386-1.991-22.374-5.653-32.566c-1.672-4.699-3.663-9.316-6.131-13.695
					c-0.08-0.08-0.08-0.159-0.08-0.239c-1.115-2.07-2.309-4.141-3.662-6.132c-2.628-4.141-5.654-8.122-8.918-11.785
					c-1.593-1.911-3.265-3.662-5.096-5.334c-5.256-5.177-11.148-9.794-17.438-13.618c-0.08,0-0.08-0.08-0.08-0.08
					c-2.15-1.273-4.3-2.469-6.45-3.503c-4.379-2.31-8.998-4.221-13.775-5.733c-2.389-0.795-4.858-1.513-7.326-2.07
					c-2.468-0.638-4.937-1.116-7.485-1.512c-2.389-0.398-4.777-0.717-7.246-0.877c-0.478-0.08-0.956-0.159-1.433-0.159
					c-2.23-0.157-4.539-0.239-6.848-0.239c-42.441,0-78.592,27.154-91.969,64.977c-3.663,10.193-5.653,21.18-5.653,32.566v24.685
					c0,10.113-8.122,18.235-18.155,18.235c-10.112,0-18.234-8.122-18.234-18.235V134.01c0-11.227,1.354-22.135,3.981-32.566
					C123.58,43.237,176.293,0,238.96,0c1.991,0,3.902,0.08,5.813,0.159c1.115,0,2.15,0.08,3.185,0.157
					c1.593,0.082,3.106,0.241,4.698,0.4c1.593,0.157,3.106,0.317,4.698,0.556c1.513,0.159,3.105,0.399,4.618,0.717
					c18.633,3.264,35.912,10.352,51.121,20.465c3.026,2.068,5.972,4.219,8.839,6.448c1.433,1.116,2.787,2.309,4.22,3.505
					c1.593,1.353,3.106,2.786,4.698,4.219c1.115,0.956,2.229,2.07,3.264,3.186c2.628,2.549,5.096,5.255,7.326,8.042
					c1.114,1.433,2.309,2.865,3.424,4.3c1.115,1.433,2.15,2.865,3.264,4.378c9.635,13.299,16.722,28.507,20.862,44.91
					C371.618,111.876,372.971,122.784,372.971,134.01z"/>
			</g>
			<rect x="19.986" y="101.444" style="fill:#A1B778;" width="437.947" height="88.464"/>
			<path style="fill:#C6DEA0;" d="M477.919,215.947v270.015c0,14.331-11.625,26.038-26.038,26.038H26.038
				c-0.478,0-1.035,0-1.513-0.082c-13.218-0.715-23.729-11.306-24.445-24.444C0,486.996,0,486.44,0,485.962V215.947
				c0-14.413,11.625-26.038,26.038-26.038h425.844C466.294,189.908,477.919,201.534,477.919,215.947z"/>
			<rect y="189.909" style="fill:#B5D48D;" width="477.919" height="260.777"/>
			<polygon style="fill:#897E6D;" points="448.139,185.849 454.27,189.908 74.451,189.908 90.535,135.047 19.986,101.444 
				457.933,101.444 450.846,104.868 388.339,135.605 387.384,136.083 441.848,181.627 			"/>
			<g>
				<polygon style="fill:#56524D;" points="477.925,189.882 387.399,189.882 387.399,135.067 				"/>
				<polygon style="fill:#56524D;" points="90.535,135.047 90.535,189.908 0,189.908 19.986,177.805 				"/>
			</g>
			<g>
				<circle style="fill:#897E6D;" cx="123.144" cy="260.358" r="24.851"/>
				<circle style="fill:#897E6D;" cx="354.77" cy="260.358" r="24.851"/>
			</g>
			<g>
				<path style="fill:#F1E6C2;" d="M238.957,421.22c-73.901,0-134.023-60.122-134.023-134.023v-24.701
					c0-10.057,8.153-18.21,18.21-18.21s18.21,8.153,18.21,18.21v24.701c0,53.819,43.784,97.603,97.603,97.603
					s97.603-43.785,97.603-97.603v-24.701c0-10.057,8.153-18.21,18.21-18.21c10.057,0,18.21,8.153,18.21,18.21v24.701
					C372.98,361.098,312.858,421.22,238.957,421.22z"/>
			</g>
			<polygon style="fill:#897E6D;" points="238.855,88.477 239.059,88.606 238.855,88.606 			"/>
		</g>
		<path style="opacity:0.07;fill:#040000;" d="M477.919,189.908v296.053c0,14.331-11.625,26.038-26.038,26.038H238.96V101.444
			h91.889c-1.672-4.778-3.663-9.316-6.052-13.695c-0.08-0.08-0.08-0.159-0.08-0.239c-1.194-2.07-2.389-4.141-3.662-6.132
			c-2.708-4.141-5.654-8.122-8.918-11.785c-1.672-1.831-3.345-3.662-5.096-5.334c-5.256-5.177-11.148-9.716-17.438-13.618
			c-0.08,0-0.08-0.08-0.08-0.08c-2.15-1.194-4.22-2.387-6.45-3.503c-4.379-2.23-8.998-4.221-13.775-5.733
			c-2.389-0.795-4.858-1.513-7.326-2.07c-2.389-0.638-4.937-1.116-7.485-1.512c-2.389-0.398-4.777-0.717-7.246-0.877
			c-0.478-0.08-0.956-0.159-1.433-0.159c-2.23-0.157-4.539-0.239-6.848-0.239V0c1.991,0,3.902,0.08,5.813,0.159
			c1.115,0,2.15,0.08,3.185,0.157c1.593,0.082,3.106,0.241,4.698,0.4c1.593,0.157,3.106,0.317,4.698,0.556
			c1.513,0.159,3.105,0.399,4.618,0.717c18.633,3.264,35.912,10.352,51.121,20.465c3.026,2.068,5.972,4.219,8.839,6.448
			c1.433,1.116,2.787,2.309,4.22,3.505c1.593,1.353,3.106,2.786,4.698,4.219c1.115,1.036,2.15,2.07,3.264,3.186
			c2.548,2.626,4.937,5.255,7.326,8.042c1.114,1.433,2.309,2.865,3.424,4.3c1.115,1.433,2.15,2.865,3.264,4.378
			c9.476,13.379,16.562,28.587,20.703,44.91h89.102v76.283L477.919,189.908z"/>
	</g>
	<polygon style="fill:#777064;" points="238.855,88.478 238.855,88.606 238.957,88.606 238.957,88.542 	"/>
	<polygon style="fill:#777064;" points="238.957,88.542 238.957,88.606 239.059,88.606 	"/>
</g>
</svg>